Coordinates
version=1
nRows=13
nColumns=36
inDegrees=yes

Units are S.I. units (second, meters, Newtons, ...)
If the header above contains a line with 'inDegrees', this indicates whether rotational values are in degrees (yes) or radians (no).

endheader
time	pelvis_tilt	pelvis_list	pelvis_rotation	pelvis_tx	pelvis_ty	pelvis_tz	hip_flexion_r	hip_adduction_r	hip_rotation_r	knee_angle_r	knee_angle_r_beta	ankle_angle_r	subtalar_angle_r	mtp_angle_r	hip_flexion_l	hip_adduction_l	hip_rotation_l	knee_angle_l	knee_angle_l_beta	ankle_angle_l	subtalar_angle_l	mtp_angle_l	lumbar_extension	lumbar_bending	lumbar_rotation	arm_flex_r	arm_add_r	arm_rot_r	elbow_flex_r	pro_sup_r	arm_flex_l	arm_add_l	arm_rot_l	elbow_flex_l	pro_sup_l
      0.00000000	      6.53503128	     -3.61549021	      4.42867315	      0.70691296	      1.03047077	      0.85018366	    -16.35429731	      4.93754492	     -0.24354165	     20.99079937	      0.36635856	      4.43946157	     -6.05375069	     -6.83808460	     18.40395572	     -4.62351137	      0.32360107	     27.56896675	      0.48116924	      6.59352495	     -1.02213554	     -6.83808460	    -19.86437277	      6.88120687	      3.88355463	      9.66923509	    -12.42267138	      4.98958635	     22.59905408	     82.47446545	      3.40223437	     -5.03341264	     -0.83570309	     19.19094975	     78.77457169
      0.01666670	      6.61372458	     -1.91845152	      4.09025417	      0.70983019	      1.03118924	      0.85047450	    -15.14314330	      2.91228120	     -0.52559514	     25.31055249	      0.44175248	      3.35729371	     -8.96915303	     -6.85718778	     16.36134448	     -2.41903865	      0.68879987	     25.99612375	      0.45371795	      3.74661415	     -3.77026680	     -6.85718778	    -20.65701889	      5.01407801	      4.43411645	      9.36934425	    -11.86132063	      4.28834065	     22.01783561	     81.39633666	      4.00726519	     -5.49867473	      0.15030609	     18.76818841	     78.65350804
      0.03333330	      6.35309730	     -0.36346927	      3.42184056	      0.71024135	      1.03160426	      0.85137904	    -12.97144568	      0.75970853	     -0.35808108	     30.75308880	      0.53674265	      2.25778222	    -11.00126171	     -6.86658093	     15.11029633	     -0.66096564	      0.03406506	     24.63912198	      0.43003380	      1.94066450	     -4.10013594	     -6.86658093	    -20.34473841	      3.31766580	      4.23679203	      9.46479478	    -11.10299166	      4.13027268	     21.50258640	     81.33141682	      4.03602931	     -5.95145387	      0.02861342	     18.58539177	     78.60354727
      0.05000000	      5.40089016	      0.37009227	      3.02476025	      0.71097724	      1.03025500	      0.85200347	     -9.37427212	     -0.58003796	     -0.25920769	     37.07043541	      0.64700115	     -0.92791485	    -12.25859871	     -6.88682529	     14.97111974	      0.09942541	     -0.38043053	     23.97823326	      0.41849912	      1.78380785	     -4.36990208	     -6.88682529	    -19.13970854	      2.30085173	      4.16134860	      9.41715322	    -10.35736633	      3.34375432	     20.15246226	     80.95254424	      3.95944513	     -6.25715960	     -0.79313472	     18.73270505	     78.14464098
      0.06666670	      4.28403871	      0.56384189	      2.53528214	      0.71289373	      1.03025948	      0.85171545	     -5.49000789	     -1.21348452	      0.12144152	     42.80336589	      0.74705967	     -5.49644586	    -13.42121219	     -6.93008255	     15.07642694	      0.14393710	     -1.13992671	     23.78016390	      0.41504216	      2.64782459	     -4.08542893	     -6.93008255	    -17.74449860	      1.81113750	      4.14376451	      9.09684384	     -9.69562626	      1.76149001	     19.45297349	     79.94656642	      3.91052148	     -6.35283743	     -2.97242129	     18.99288545	     76.85597380
      0.08333330	      3.82722697	      1.17096720	      2.05604426	      0.71540771	      1.03119982	      0.85059639	     -2.56060126	     -2.13731023	      0.54468944	     47.60310534	      0.83083092	     -9.63132968	    -13.80132086	     -6.94269202	     14.33286435	      0.59543952	     -1.87109356	     23.55504620	      0.41111311	      3.29517019	     -4.32704846	     -6.94269202	    -17.20961764	      0.91140893	      3.85022543	      8.49495109	     -9.14605524	      1.27791021	     19.23086917	     79.58977145	      4.07114686	     -6.62160327	     -3.54712753	     19.07241996	     76.48335960
      0.10000000	      2.78096631	      1.50812437	      1.83202517	      0.71722554	      1.03094773	      0.84827597	      0.60452290	     -2.59766663	      0.90811859	     51.28964888	      0.89517325	    -12.83955027	    -13.46339484	     -6.97074572	     14.36027372	      0.87025351	     -2.33379522	     23.56619217	      0.41130765	      4.13498432	     -4.59342881	     -6.97074572	    -15.83547747	      0.42870104	      3.62436993	      7.54946767	     -8.64339055	     -0.34960363	     18.58321806	     78.57093803	      4.37080070	     -6.67627707	     -4.76337935	     18.92299097	     75.60877714
      0.11666670	      2.87953130	      1.70472080	      1.88952351	      0.71776248	      1.03139580	      0.84483378	      2.08328911	     -2.80088322	      0.95045164	     53.69597036	      0.93717148	    -14.77240978	    -12.47967690	     -6.97531991	     13.14696783	      1.14348622	     -2.35489520	     23.30052555	      0.40667089	      4.96420105	     -4.83110507	     -6.97531991	    -16.04556562	      0.34733956	      2.88947734	      6.79988817	     -8.49617402	     -0.52374326	     18.39156578	     78.43211111	      4.96706731	     -6.85311366	     -4.83487656	     19.08403479	     75.52141593
      0.13333330	      2.47392575	      2.52614061	      1.68298080	      0.71912437	      1.03021693	      0.84200716	      4.19427560	     -3.65815747	      1.32589109	     55.90762767	      0.97577218	    -15.04015222	    -12.09097075	     -6.97727286	     12.38949147	      2.08287399	     -2.86012453	     22.85265989	      0.39885416	      5.60151944	     -4.91750897	     -6.97727286	    -15.41878410	     -0.58004384	      2.17664794	      5.92606927	     -7.92402919	     -1.98660728	     17.62847146	     76.87653970	      5.49425674	     -7.24111254	     -5.24530160	     19.03445980	     74.42534413
      0.15000000	      2.37863608	      2.85185740	      1.27000780	      0.72046706	      1.02968091	      0.84042551	      6.25795503	     -3.92194129	      2.04212313	     57.75077379	      1.00794115	    -13.42733621	    -12.60672667	     -6.98524280	     11.36344737	      2.47711071	     -3.59569556	     22.52793408	      0.39318662	      6.44505295	     -4.60029752	     -6.98524280	    -15.30356093	     -0.88081194	      1.93459414	      5.08244348	     -7.74795732	     -2.98727229	     17.13450132	     75.83088856	      6.08038427	     -7.48994368	     -5.34179803	     19.52265299	     73.68999519
      0.16666670	      2.33899479	      3.01040703	      0.91109959	      0.72034781	      1.03102202	      0.84062339	      8.48830330	     -4.02338477	      2.72083884	     59.11512210	      1.03175352	     -9.82773061	    -14.15786678	     -6.97842547	     10.26838771	      2.72526685	     -4.09657501	     22.18166332	      0.38714306	      7.06563026	     -4.39056052	     -6.97842547	    -15.36342692	     -0.95800565	      1.61048243	      4.40217186	     -7.69130806	     -3.65033285	     16.98027207	     75.11389097	      6.51056299	     -7.77132771	     -5.39749644	     20.35179659	     73.17481174
      0.18333330	      2.26816145	      2.92617164	      0.59237216	      0.71861331	      1.03313914	      0.84193680	     10.72246618	     -3.87533032	      3.24159918	     59.71503173	      1.04222392	     -5.54477306	    -15.96641648	     -7.00117281	      9.17795170	      2.69544068	     -4.38178761	     21.68846274	      0.37853508	      7.44572330	     -4.27663633	     -7.00117281	    -15.42922256	     -0.77189730	      1.28953870	      3.97397164	     -7.64830325	     -4.19697276	     16.80062548	     74.51703209	      6.79315122	     -8.04450150	     -5.42986954	     21.47663977	     72.80451098
      0.20000000	      2.34296553	      2.60270417	      0.42615592	      0.71617409	      1.03427379	      0.84224115	     12.54494964	     -3.54742396	      3.40926008	     59.38652624	      1.03649041	     -2.24600658	    -17.20207581	     -6.99941419	      7.89259385	      2.42700000	     -4.31698919	     20.93651722	      0.36541116	      7.59985000	     -4.39164602	     -6.99941419	    -15.63044297	     -0.30007303	      0.98568240	      3.69698584	     -7.67441871	     -4.45715470	     16.73299279	     74.15535932	      7.17520691	     -8.27902565	     -5.68821738	     22.41255972	     72.55129671
